<svg width="1440" height="383" viewBox="0 0 1440 383" fill="none" xmlns="http://www.w3.org/2000/svg">
<g style="mix-blend-mode:hard-light">
<path d="M-77.5455 28.8926C-1.19013 26.6103 49.2718 -20.7139 203.445 13.1549C357.619 47.0237 425.821 108.833 581.164 121.468C736.507 134.104 798.927 178.858 927.788 232.918C1121.25 314.082 1469.1 330.705 1469.1 330.705" stroke="url(#paint0_linear_1_3)" stroke-width="0.7"/>
<path d="M-95.5391 53.778C-18.6552 49.3665 31.6859 -2.3743 187.321 29.7225C342.957 61.819 412.286 125.92 568.882 135.359C725.477 144.797 788.807 190.872 919.154 245.144C1114.85 326.623 1465.38 335.321 1465.38 335.321" stroke="url(#paint1_linear_1_3)" stroke-width="0.8"/>
<path d="M-112.963 79.066C-35.6023 72.507 14.479 16.3404 171.561 46.6242C328.643 76.908 399.2 143.279 556.984 149.481C714.767 155.682 779.073 203.06 910.952 257.506C1108.95 339.247 1462 339.931 1462 339.931" stroke="url(#paint2_linear_1_3)" stroke-width="0.9"/>
<path d="M-129.808 104.747C-52.0217 96.022 -2.33952 35.424 156.173 63.854C314.686 92.284 386.571 160.9 545.477 163.827C704.383 166.753 769.728 215.413 903.185 269.995C1103.55 351.942 1458.94 344.528 1458.94 344.528" stroke="url(#paint3_linear_1_3)"/>
<path d="M-146.064 130.809C-67.9041 119.901 -18.7607 54.87 141.165 81.405C301.091 107.94 374.405 178.775 534.366 178.389C694.328 178.003 760.778 227.923 895.858 282.602C1098.66 364.695 1456.21 349.102 1456.21 349.102" stroke="url(#paint4_linear_1_3)" stroke-width="1.1"/>
<path d="M-161.721 157.241C-83.2402 144.135 -34.7753 74.672 126.546 99.271C287.867 123.87 362.708 196.894 523.657 193.16C684.607 189.426 752.226 240.58 888.972 295.316C1094.28 377.494 1453.81 353.645 1453.81 353.645" stroke="url(#paint5_linear_1_3)" stroke-width="1.2"/>
<path d="M-176.769 184.031C-98.0211 168.713 -50.3747 94.824 112.323 117.446C275.02 140.068 351.487 215.248 513.356 208.131C675.226 201.015 744.075 253.377 882.531 308.127C1090.4 390.326 1451.75 358.148 1451.75 358.148" stroke="url(#paint6_linear_1_3)" stroke-width="1.3"/>
<path d="M-191.2 211.168C-112.238 193.625 -65.5495 115.317 98.5038 135.921C262.557 156.526 340.747 233.826 503.467 223.294C666.187 212.762 736.331 266.304 876.539 321.025C1087.04 403.18 1450.01 362.602 1450.01 362.602" stroke="url(#paint7_linear_1_3)" stroke-width="1.4"/>
<path d="M-205.004 238.64C-125.882 218.86 -80.2914 136.145 85.0967 154.691C250.485 173.237 330.496 252.619 493.996 238.64C657.496 224.661 728.996 279.354 870.996 334C1084.19 416.043 1448.6 367 1448.6 367" stroke="url(#paint8_linear_1_3)" stroke-width="1.5"/>
</g>
<defs>
<linearGradient id="paint0_linear_1_3" x1="12.9999" y1="21.0002" x2="12.4687" y2="320.645" gradientUnits="userSpaceOnUse">
<stop stop-color="#FC594F" stop-opacity="0"/>
<stop offset="0.0548279" stop-color="#FC594F"/>
<stop offset="0.848928" stop-color="#5522B1"/>
<stop offset="1" stop-color="#5E4A92" stop-opacity="0"/>
</linearGradient>
<linearGradient id="paint1_linear_1_3" x1="49.9999" y1="33.0001" x2="52.576" y2="340.686" gradientUnits="userSpaceOnUse">
<stop stop-color="#FC594F" stop-opacity="0"/>
<stop offset="0.0881905" stop-color="#FC594F"/>
<stop offset="0.891583" stop-color="#5522B1"/>
<stop offset="1" stop-color="#5E4A92" stop-opacity="0"/>
</linearGradient>
<linearGradient id="paint2_linear_1_3" x1="57.0001" y1="72" x2="70.7494" y2="391.891" gradientUnits="userSpaceOnUse">
<stop stop-color="#FC594F" stop-opacity="0"/>
<stop offset="0.0582288" stop-color="#FC594F"/>
<stop offset="0.891583" stop-color="#5522B1"/>
<stop offset="1" stop-color="#5E4A92" stop-opacity="0"/>
</linearGradient>
<linearGradient id="paint3_linear_1_3" x1="85.2259" y1="97.921" x2="106.56" y2="424.777" gradientUnits="userSpaceOnUse">
<stop stop-color="#FC594F" stop-opacity="0"/>
<stop offset="0.135417" stop-color="#FC594F"/>
<stop offset="0.891583" stop-color="#5522B1"/>
<stop offset="1" stop-color="#5E4A92" stop-opacity="0"/>
</linearGradient>
<linearGradient id="paint4_linear_1_3" x1="70.2466" y1="118.905" x2="101.29" y2="462.902" gradientUnits="userSpaceOnUse">
<stop stop-color="#FC594F" stop-opacity="0"/>
<stop offset="0.135417" stop-color="#FC594F"/>
<stop offset="0.891583" stop-color="#5522B1"/>
<stop offset="1" stop-color="#5E4A92" stop-opacity="0"/>
</linearGradient>
<linearGradient id="paint5_linear_1_3" x1="55.7539" y1="140.213" x2="97.3251" y2="501.008" gradientUnits="userSpaceOnUse">
<stop stop-color="#FC594F" stop-opacity="0"/>
<stop offset="0.135417" stop-color="#FC594F"/>
<stop offset="0.891583" stop-color="#5522B1"/>
<stop offset="1" stop-color="#5E4A92" stop-opacity="0"/>
</linearGradient>
<linearGradient id="paint6_linear_1_3" x1="41.7561" y1="161.835" x2="94.6547" y2="539.057" gradientUnits="userSpaceOnUse">
<stop stop-color="#FC594F" stop-opacity="0"/>
<stop offset="0.135417" stop-color="#FC594F"/>
<stop offset="0.891583" stop-color="#5522B1"/>
<stop offset="1" stop-color="#5E4A92" stop-opacity="0"/>
</linearGradient>
<linearGradient id="paint7_linear_1_3" x1="28.2614" y1="183.763" x2="93.269" y2="577.012" gradientUnits="userSpaceOnUse">
<stop stop-color="#FC594F" stop-opacity="0"/>
<stop offset="0.135417" stop-color="#FC594F"/>
<stop offset="0.891583" stop-color="#5522B1"/>
<stop offset="1" stop-color="#5E4A92" stop-opacity="0"/>
</linearGradient>
<linearGradient id="paint8_linear_1_3" x1="15.2777" y1="205.986" x2="93.1565" y2="614.836" gradientUnits="userSpaceOnUse">
<stop stop-color="#FC594F" stop-opacity="0"/>
<stop offset="0.135417" stop-color="#FC594F"/>
<stop offset="0.891583" stop-color="#5522B1"/>
<stop offset="1" stop-color="#5E4A92" stop-opacity="0"/>
</linearGradient>
</defs>
</svg>
